<svg xmlns="http://www.w3.org/2000/svg" width="228.124" height="37.2" viewBox="0 0 228.124 37.2">
  <g id="logo" transform="translate(-36.2 -39.8)">
    <g id="グループ_4" data-name="グループ 4" transform="translate(36 37)">
      <g id="グループ_3" data-name="グループ 3" transform="translate(0 29.511)">
        <path id="パス_204" data-name="パス 204" d="M1.84,0a1.26,1.26,0,0,1-.655-.175,1.323,1.323,0,0,1-.47-.47A1.26,1.26,0,0,1,.54-1.3V-5.9a1.26,1.26,0,0,1,.175-.655,1.323,1.323,0,0,1,.47-.47A1.26,1.26,0,0,1,1.84-7.2h4.6a1.268,1.268,0,0,1,.65.175,1.311,1.311,0,0,1,.475.47A1.26,1.26,0,0,1,7.74-5.9v4.6a1.26,1.26,0,0,1-.175.655,1.311,1.311,0,0,1-.475.47A1.268,1.268,0,0,1,6.44,0Zm.03-1.08H6.4a.235.235,0,0,0,.18-.075.248.248,0,0,0,.07-.175V-5.87a.248.248,0,0,0-.07-.175A.235.235,0,0,0,6.4-6.12H1.87a.24.24,0,0,0-.175.075.24.24,0,0,0-.075.175v4.54a.24.24,0,0,0,.075.175A.24.24,0,0,0,1.87-1.08Z" transform="translate(31 10.489)" fill="#fff"/>
        <path id="パス_203" data-name="パス 203" d="M.53,0V-7.2H1.61V0Z" transform="translate(19 10.489)" fill="#fff"/>
        <path id="パス_202" data-name="パス 202" d="M.57,0V-7.21H1.65v6.13H7.77V0Z" transform="translate(0 10.489)" fill="#fff"/>
      </g>
      <g id="グループ_2" data-name="グループ 2" transform="translate(0 15.177)">
        <path id="パス_201" data-name="パス 201" d="M1.84,0a1.26,1.26,0,0,1-.655-.175,1.323,1.323,0,0,1-.47-.47A1.26,1.26,0,0,1,.54-1.3V-5.9a1.26,1.26,0,0,1,.175-.655,1.323,1.323,0,0,1,.47-.47A1.26,1.26,0,0,1,1.84-7.2h4.6a1.268,1.268,0,0,1,.65.175,1.311,1.311,0,0,1,.475.47A1.26,1.26,0,0,1,7.74-5.9v4.6a1.26,1.26,0,0,1-.175.655,1.311,1.311,0,0,1-.475.47A1.268,1.268,0,0,1,6.44,0Zm.03-1.08H6.4a.235.235,0,0,0,.18-.075.248.248,0,0,0,.07-.175V-5.87a.248.248,0,0,0-.07-.175A.235.235,0,0,0,6.4-6.12H1.87a.24.24,0,0,0-.175.075.24.24,0,0,0-.075.175v4.54a.24.24,0,0,0,.075.175A.24.24,0,0,0,1.87-1.08Z" transform="translate(32 9.823)" fill="#fff"/>
        <path id="パス_200" data-name="パス 200" d="M.58,0V-7.2h6.6v1.08H1.67v1.97H6.1v1.1H1.67V0Z" transform="translate(16 9.823)" fill="#fff"/>
        <path id="パス_199" data-name="パス 199" d="M3.26,0V-6.12H.2V-7.2H7.4v1.08H4.35V0Z" transform="translate(0 9.823)" fill="#fff"/>
      </g>
      <g id="グループ_1" data-name="グループ 1">
        <path id="パス_198" data-name="パス 198" d="M6.46,0,4.21-2.69H5.62L7.72-.2V0ZM.56,0V-7.19H6.45a1.259,1.259,0,0,1,.66.18,1.351,1.351,0,0,1,.475.475,1.241,1.241,0,0,1,.175.645v2.02a1.26,1.26,0,0,1-.175.655,1.311,1.311,0,0,1-.475.47,1.286,1.286,0,0,1-.66.175l-4.81.01V0ZM1.89-3.66H6.42a.244.244,0,0,0,.18-.07.231.231,0,0,0,.07-.17V-5.86a.248.248,0,0,0-.07-.175.235.235,0,0,0-.18-.075H1.89a.24.24,0,0,0-.175.075.24.24,0,0,0-.075.175V-3.9a.224.224,0,0,0,.075.17A.248.248,0,0,0,1.89-3.66Z" transform="translate(32 10)" fill="#fff"/>
        <path id="パス_197" data-name="パス 197" d="M1.84,0a1.26,1.26,0,0,1-.655-.175,1.323,1.323,0,0,1-.47-.47A1.26,1.26,0,0,1,.54-1.3V-5.9a1.26,1.26,0,0,1,.175-.655,1.323,1.323,0,0,1,.47-.47A1.26,1.26,0,0,1,1.84-7.2h4.6a1.268,1.268,0,0,1,.65.175,1.311,1.311,0,0,1,.475.47A1.26,1.26,0,0,1,7.74-5.9v4.6a1.26,1.26,0,0,1-.175.655,1.311,1.311,0,0,1-.475.47A1.268,1.268,0,0,1,6.44,0Zm.03-1.08H6.4a.235.235,0,0,0,.18-.075.248.248,0,0,0,.07-.175V-5.87a.248.248,0,0,0-.07-.175A.235.235,0,0,0,6.4-6.12H1.87a.24.24,0,0,0-.175.075.24.24,0,0,0-.075.175v4.54a.24.24,0,0,0,.075.175A.24.24,0,0,0,1.87-1.08Z" transform="translate(16 10)" fill="#fff"/>
        <path id="パス_196" data-name="パス 196" d="M.56,0V-7.19H6.45a1.259,1.259,0,0,1,.66.18,1.351,1.351,0,0,1,.475.475,1.241,1.241,0,0,1,.175.645v2.02a1.26,1.26,0,0,1-.175.655,1.311,1.311,0,0,1-.475.47,1.286,1.286,0,0,1-.66.175l-4.81.01V0ZM1.89-3.66H6.42a.244.244,0,0,0,.18-.07.231.231,0,0,0,.07-.17V-5.86a.248.248,0,0,0-.07-.175.235.235,0,0,0-.18-.075H1.89a.24.24,0,0,0-.175.075.24.24,0,0,0-.075.175V-3.9a.224.224,0,0,0,.075.17A.248.248,0,0,0,1.89-3.66Z" transform="translate(0 10)" fill="#fff"/>
      </g>
    </g>
    <path id="パス_205" data-name="パス 205" d="M.7,0V-7.54h6.11a1.5,1.5,0,0,1,.786.214,1.643,1.643,0,0,1,.572.572,1.5,1.5,0,0,1,.214.786V0H7.319V-5.967a.488.488,0,0,0-.149-.357.488.488,0,0,0-.357-.15H2.288a.51.51,0,0,0-.364.15.478.478,0,0,0-.156.357V0ZM12.324,0V-7.54H13.39V0Zm0-8.944V-10.01H13.39v1.066ZM19.149,0a1.5,1.5,0,0,1-.787-.214,1.643,1.643,0,0,1-.572-.572,1.5,1.5,0,0,1-.215-.787v-.1h1.066v.1a.488.488,0,0,0,.149.358.488.488,0,0,0,.358.15h4.524a.488.488,0,0,0,.358-.15.488.488,0,0,0,.149-.358V-2.73a.488.488,0,0,0-.149-.358.488.488,0,0,0-.358-.15H19.149a1.5,1.5,0,0,1-.787-.214,1.643,1.643,0,0,1-.572-.572,1.5,1.5,0,0,1-.215-.786V-5.967a1.5,1.5,0,0,1,.215-.786,1.643,1.643,0,0,1,.572-.572,1.5,1.5,0,0,1,.787-.214h4.524a1.524,1.524,0,0,1,.8.214,1.643,1.643,0,0,1,.572.572,1.5,1.5,0,0,1,.215.786v.1H24.18v-.1a.488.488,0,0,0-.149-.357.488.488,0,0,0-.358-.15H19.149a.488.488,0,0,0-.358.15.488.488,0,0,0-.149.357V-4.81a.488.488,0,0,0,.149.357.488.488,0,0,0,.358.149h4.524a1.524,1.524,0,0,1,.8.215,1.643,1.643,0,0,1,.572.572,1.5,1.5,0,0,1,.215.786v1.157a1.5,1.5,0,0,1-.215.787,1.643,1.643,0,0,1-.572.572,1.524,1.524,0,0,1-.8.214ZM29.172,0V-10.01h1.066v2.47h5.044a1.5,1.5,0,0,1,.786.214,1.643,1.643,0,0,1,.572.572,1.5,1.5,0,0,1,.215.786V0H35.789V-5.967a.488.488,0,0,0-.15-.357.488.488,0,0,0-.357-.15H30.758a.51.51,0,0,0-.364.15.478.478,0,0,0-.156.357V0ZM40.495,0V-7.54h1.066V0Zm0-8.944V-10.01h1.066v1.066ZM45.825,0V-10.01h1.066V-4.3h2.08L51.935-7.54h1.4v.013L49.92-3.77,53.326-.013V0H51.935L48.971-3.237h-2.08V0ZM58.37,0a1.5,1.5,0,0,1-.786-.214,1.643,1.643,0,0,1-.572-.572,1.5,1.5,0,0,1-.215-.787V-4.3h6.6V-5.967a.488.488,0,0,0-.149-.357.488.488,0,0,0-.358-.15H56.8V-7.54h6.1a1.524,1.524,0,0,1,.8.214,1.643,1.643,0,0,1,.572.572,1.5,1.5,0,0,1,.215.786V0Zm0-1.066H63.4V-3.237H57.863v1.664a.488.488,0,0,0,.149.358A.488.488,0,0,0,58.37-1.066ZM70.772,0,67.808-7.54h1.144L71.24-1.924,73.671-7.54h1.4l2.587,5.6,2.132-5.6h1.157L78.1,0h-.923L74.373-6.227,71.708,0ZM86.125,0a1.5,1.5,0,0,1-.786-.214,1.643,1.643,0,0,1-.572-.572,1.5,1.5,0,0,1-.215-.787V-4.3h6.6V-5.967a.488.488,0,0,0-.149-.357.488.488,0,0,0-.357-.15h-6.1V-7.54h6.1a1.524,1.524,0,0,1,.8.214,1.643,1.643,0,0,1,.572.572,1.5,1.5,0,0,1,.215.786V0Zm0-1.066h5.031V-3.237H85.618v1.664a.488.488,0,0,0,.15.358A.488.488,0,0,0,86.125-1.066ZM103.9,0a1.524,1.524,0,0,1-.8-.214,1.59,1.59,0,0,1-.565-.572,1.536,1.536,0,0,1-.208-.787V-10.01h1.066v2.47h3.263v1.066h-3.263v4.9a.488.488,0,0,0,.15.358.488.488,0,0,0,.357.15h2.756V0Zm7.917,0a1.5,1.5,0,0,1-.786-.214,1.643,1.643,0,0,1-.572-.572,1.5,1.5,0,0,1-.215-.787V-4.3h6.6V-5.967a.488.488,0,0,0-.149-.357.488.488,0,0,0-.357-.15h-6.1V-7.54h6.1a1.524,1.524,0,0,1,.8.214,1.643,1.643,0,0,1,.572.572,1.5,1.5,0,0,1,.215.786V0Zm0-1.066h5.031V-3.237h-5.538v1.664a.488.488,0,0,0,.15.358A.488.488,0,0,0,111.813-1.066ZM121.888,0V-10.01h1.066V-4.3h2.08L128-7.54h1.4v.013L125.983-3.77l3.406,3.757V0H128l-2.964-3.237h-2.08V0Zm12.467,0a1.5,1.5,0,0,1-.786-.214A1.643,1.643,0,0,1,133-.787a1.5,1.5,0,0,1-.215-.787V-5.967A1.5,1.5,0,0,1,133-6.753a1.643,1.643,0,0,1,.572-.572,1.5,1.5,0,0,1,.786-.214h4.524a1.524,1.524,0,0,1,.8.214,1.643,1.643,0,0,1,.572.572,1.5,1.5,0,0,1,.215.786v2.73h-6.617v1.664a.488.488,0,0,0,.149.358.488.488,0,0,0,.357.15h6.11V0Zm-.507-4.3h5.538V-5.967a.488.488,0,0,0-.15-.357.488.488,0,0,0-.357-.15h-4.524a.488.488,0,0,0-.357.15.488.488,0,0,0-.149.357ZM145.912,0a1.5,1.5,0,0,1-.786-.214,1.643,1.643,0,0,1-.572-.572,1.5,1.5,0,0,1-.215-.787v-.1h1.066v.1a.488.488,0,0,0,.149.358.488.488,0,0,0,.358.15h4.524a.488.488,0,0,0,.358-.15.488.488,0,0,0,.149-.358V-2.73a.488.488,0,0,0-.149-.358.488.488,0,0,0-.358-.15h-4.524a1.5,1.5,0,0,1-.786-.214,1.643,1.643,0,0,1-.572-.572,1.5,1.5,0,0,1-.215-.786V-5.967a1.5,1.5,0,0,1,.215-.786,1.643,1.643,0,0,1,.572-.572,1.5,1.5,0,0,1,.786-.214h4.524a1.524,1.524,0,0,1,.8.214,1.643,1.643,0,0,1,.572.572,1.5,1.5,0,0,1,.215.786v.1h-1.079v-.1a.488.488,0,0,0-.149-.357.488.488,0,0,0-.358-.15h-4.524a.488.488,0,0,0-.358.15.488.488,0,0,0-.149.357V-4.81a.488.488,0,0,0,.149.357.488.488,0,0,0,.358.149h4.524a1.524,1.524,0,0,1,.8.215,1.643,1.643,0,0,1,.572.572,1.5,1.5,0,0,1,.215.786v1.157a1.5,1.5,0,0,1-.215.787,1.643,1.643,0,0,1-.572.572,1.524,1.524,0,0,1-.8.214Zm10.023,0V-10.01H157v2.47h5.044a1.5,1.5,0,0,1,.786.214,1.643,1.643,0,0,1,.572.572,1.5,1.5,0,0,1,.214.786V0h-1.066V-5.967a.488.488,0,0,0-.15-.357.488.488,0,0,0-.357-.15h-4.524a.51.51,0,0,0-.364.15.478.478,0,0,0-.156.357V0Zm11.323,0V-7.54h1.066V0Zm0-8.944V-10.01h1.066v1.066Z" transform="translate(96 63)" fill="#fff"/>
  </g>
</svg>
