<svg xmlns="http://www.w3.org/2000/svg" xmlns:xlink="http://www.w3.org/1999/xlink" width="20" height="20" viewBox="0 0 20 20">
  <defs>
    <clipPath id="clip-icon_insta">
      <rect width="20" height="20"/>
    </clipPath>
  </defs>
  <g id="icon_insta" clip-path="url(#clip-icon_insta)">
    <g id="icon_insta-2" data-name="icon_insta" transform="translate(4357.044 -1993.138)">
      <path id="パス_1" data-name="パス 1" d="M16.644,0H9.268A4.987,4.987,0,0,0,4.281,4.987v7.672a4.987,4.987,0,0,0,4.987,4.987h7.377a4.987,4.987,0,0,0,4.987-4.987V4.987A4.987,4.987,0,0,0,16.644,0ZM6.051,4.987A3.22,3.22,0,0,1,9.268,1.77h7.377A3.22,3.22,0,0,1,19.86,4.987v7.672a3.22,3.22,0,0,1-3.216,3.216H9.268a3.22,3.22,0,0,1-3.216-3.216Z" transform="translate(-4360 1994.486)" fill="#fff"/>
      <path id="パス_2" data-name="パス 2" d="M128.693,133.233a4.544,4.544,0,1,0-4.544-4.544A4.549,4.549,0,0,0,128.693,133.233Zm0-7.672a3.128,3.128,0,1,1-3.128,3.128A3.131,3.131,0,0,1,128.693,125.561Z" transform="translate(-4475.737 1874.619)" fill="#fff"/>
      <ellipse id="楕円形_1" data-name="楕円形 1" cx="1.018" cy="1.018" rx="1.018" ry="1.018" transform="translate(-4343.385 1997.614)" fill="#fff"/>
    </g>
  </g>
</svg>
