<svg xmlns="http://www.w3.org/2000/svg" xmlns:xlink="http://www.w3.org/1999/xlink" width="20" height="20" viewBox="0 0 20 20">
  <defs>
    <clipPath id="clip-icon_movie">
      <rect width="20" height="20"/>
    </clipPath>
  </defs>
  <g id="icon_movie" clip-path="url(#clip-icon_movie)">
    <g id="動画再生ボタンのアイコン_8" data-name="動画再生ボタンのアイコン 8" transform="translate(0 -77.538)">
      <path id="パス_3" data-name="パス 3" d="M2.678,93.918q3.661.327,7.322.327,3.642,0,7.285-.325l.031,0h.006l-.024-.272v0l.025.275a2.55,2.55,0,0,0,2.284-2.092A25.375,25.375,0,0,0,20,87.392a25.343,25.343,0,0,0-.394-4.434,2.549,2.549,0,0,0-2.284-2.092q-3.66-.328-7.32-.328t-7.323.328A2.548,2.548,0,0,0,.394,82.958a25.133,25.133,0,0,0,0,8.869A2.549,2.549,0,0,0,2.678,93.918ZM1.1,87.392a24.265,24.265,0,0,1,.377-4.243,1.452,1.452,0,0,1,1.3-1.191q3.613-.323,7.225-.323t7.223.323a1.453,1.453,0,0,1,1.3,1.191,24.28,24.28,0,0,1,.377,4.243,24.3,24.3,0,0,1-.377,4.244,1.453,1.453,0,0,1-1.3,1.191q-3.612.323-7.224.323t-7.224-.323a1.452,1.452,0,0,1-1.3-1.191A24.288,24.288,0,0,1,1.1,87.392Z" transform="translate(0)" fill="#fff"/>
      <path id="パス_5" data-name="パス 5" d="M2.466,92.857q3.37.3,6.741.3,3.353,0,6.707-.3l.029,0h.006l-.022-.251v0l.023.253a2.348,2.348,0,0,0,2.1-1.926,23.362,23.362,0,0,0,.363-4.083,23.333,23.333,0,0,0-.363-4.083,2.347,2.347,0,0,0-2.1-1.926q-3.37-.3-6.74-.3t-6.742.3a2.346,2.346,0,0,0-2.1,1.926,23.14,23.14,0,0,0,0,8.166A2.347,2.347,0,0,0,2.466,92.857ZM1.01,86.848a22.341,22.341,0,0,1,.348-3.907,1.337,1.337,0,0,1,1.2-1.1q3.327-.3,6.653-.3t6.65.3a1.337,1.337,0,0,1,1.2,1.1,22.354,22.354,0,0,1,.347,3.906,22.373,22.373,0,0,1-.347,3.907,1.338,1.338,0,0,1-1.2,1.1q-3.326.3-6.651.3t-6.651-.3a1.337,1.337,0,0,1-1.2-1.1A22.362,22.362,0,0,1,1.01,86.848Z" transform="translate(0.793 0.544)" fill="#fff"/>
      <path id="パス_4" data-name="パス 4" d="M214.891,195.985l3.873-2.236a.3.3,0,0,0,0-.528l-3.873-2.236a.3.3,0,0,0-.457.264v4.472A.3.3,0,0,0,214.891,195.985Z" transform="translate(-206.058 -106.094)" fill="#fff"/>
    </g>
  </g>
</svg>
